<?xml version="1.0" encoding="UTF-8"?>
<svg id="Capa_2" data-name="Capa 2" xmlns="http://www.w3.org/2000/svg" viewBox="0 0 191.19 191.19">
  <defs>
    <style>
      .cls-1 {
        fill: #c11819;
      }

      .cls-2 {
        fill: #262726;
      }
    </style>
  </defs>
  <g id="Capa_1-2" data-name="Capa 1">
    <g>
      <path class="cls-1" d="M10.12,52.78c-4.04,8.07-7,16.86-8.65,26.2-4.09,23.17,.55,45.86,11.54,64.71L79.96,65.11,10.12,52.78Z"/>
      <path class="cls-1" d="M90.6,.12C57.71,1.82,28.1,20.49,12.21,48.84l102.23,18.04L90.6,.12Z"/>
      <path class="cls-1" d="M181.07,138.41c4.04-8.07,7-16.86,8.65-26.2,4.09-23.16-.54-45.83-11.51-64.67L111.24,126.09l69.83,12.33Z"/>
      <path class="cls-1" d="M175.88,43.73C161.95,22.19,139.46,6.28,112.21,1.47,106.45,.45,100.72-.02,95.07,0l34.86,97.61,45.94-53.89Z"/>
      <path class="cls-1" d="M15.35,147.5c13.92,21.52,36.41,37.41,63.64,42.22,6.13,1.08,12.23,1.55,18.24,1.45L61.29,93.56,15.35,147.5Z"/>
      <path class="cls-1" d="M101.69,191c32.45-2.04,61.58-20.62,77.3-48.64l-101.82-17.97,24.52,66.61Z"/>
    </g>
    <path class="cls-2" d="M106.16,113.65v-20.59l-6.55,14.48h-5.73l-6.55-14.48v20.59h-10.74v-39.08h11.72l8.42,18.38,8.48-18.38h11.67v39.08h-10.73Z"/>
  </g>
</svg>