<svg width="11" height="11" viewBox="0 0 11 11" fill="none" xmlns="http://www.w3.org/2000/svg">
<path d="M0 0.770229C0 0.344788 0.353526 0 0.78972 0H9.96391C10.4001 0 10.7536 0.344788 10.7536 0.770229V9.9834C10.7536 10.4088 10.4001 10.7536 9.96391 10.7536H0.78972C0.353526 10.7536 0 10.4088 0 9.9834V0.770229ZM3.3222 9.00214V4.1462H1.70848V9.00214H3.3222ZM2.51568 3.48283C3.07823 3.48283 3.42839 3.11049 3.42839 2.64405C3.41831 2.16753 3.0789 1.80527 2.52643 1.80527C1.97396 1.80527 1.61305 2.1682 1.61305 2.64405C1.61305 3.11049 1.96321 3.48283 2.50492 3.48283H2.51568ZM5.81436 9.00214V6.2902C5.81436 6.14503 5.82511 5.99986 5.86812 5.89635C5.9844 5.60668 6.24988 5.30625 6.69615 5.30625C7.28021 5.30625 7.51343 5.75118 7.51343 6.40446V9.00214H9.12715V6.21694C9.12715 4.72488 8.33138 4.03127 7.26946 4.03127C6.4132 4.03127 6.02943 4.50174 5.81436 4.83309V4.84989H5.8036C5.80717 4.84428 5.81076 4.83868 5.81436 4.83309V4.1462H4.20131C4.22147 4.60188 4.20131 9.00214 4.20131 9.00214H5.81436Z" fill="#F8F8F8"/>
</svg>
