<svg width="11" height="11" viewBox="0 0 11 11" fill="none" xmlns="http://www.w3.org/2000/svg">
<path d="M10.1622 0H0.59145C0.434588 0 0.28415 0.0623133 0.173232 0.173232C0.0623133 0.28415 0 0.434588 0 0.59145V10.1622C0 10.319 0.0623133 10.4695 0.173232 10.5804C0.28415 10.6913 0.434588 10.7536 0.59145 10.7536H5.74244V6.5866H4.34447V4.97356H5.74244V3.76377C5.71348 3.47975 5.74701 3.19282 5.84068 2.92313C5.93435 2.65343 6.08589 2.40749 6.28467 2.20257C6.48345 1.99764 6.72466 1.83868 6.99138 1.73684C7.2581 1.635 7.54387 1.59275 7.82865 1.61305C8.24714 1.61047 8.66543 1.63201 9.08144 1.67757V3.12931H8.22653C7.54905 3.12931 7.42001 3.45192 7.42001 3.9197V4.95743H9.03305L8.82336 6.57047H7.42001V10.7536H10.1622C10.2399 10.7536 10.3168 10.7383 10.3885 10.7086C10.4603 10.6789 10.5255 10.6353 10.5804 10.5804C10.6353 10.5255 10.6789 10.4603 10.7086 10.3885C10.7383 10.3168 10.7536 10.2399 10.7536 10.1622V0.59145C10.7536 0.51378 10.7383 0.43687 10.7086 0.365112C10.6789 0.293354 10.6353 0.228153 10.5804 0.173232C10.5255 0.118311 10.4603 0.0747446 10.3885 0.0450215C10.3168 0.0152984 10.2399 0 10.1622 0Z" fill="#F8F8F8"/>
</svg>
