<svg width="11" height="11" viewBox="0 0 11 11" fill="none" xmlns="http://www.w3.org/2000/svg">
<path fill-rule="evenodd" clip-rule="evenodd" d="M2.21305 0C1.62626 -4.50712e-08 1.06349 0.242753 0.648487 0.674882C0.233485 1.10701 0.000225342 1.69313 0 2.30437V8.45173C0 9.06312 0.23316 9.64948 0.648187 10.0818C1.06321 10.5141 1.62611 10.757 2.21305 10.757H8.11451C8.7013 10.7568 9.26398 10.5138 9.67882 10.0815C10.0937 9.64919 10.3267 9.06297 10.3267 8.45173V2.30437C10.3265 1.69329 10.0933 1.1073 9.67852 0.675195C9.2637 0.243091 8.70115 0.000234627 8.11451 0H2.21305ZM8.75106 2.30791C8.75106 2.48401 8.68391 2.65289 8.56437 2.7774C8.44483 2.90192 8.28271 2.97187 8.11366 2.97187C7.94461 2.97187 7.78249 2.90192 7.66295 2.7774C7.54342 2.65289 7.47626 2.48401 7.47626 2.30791C7.47626 2.13182 7.54342 1.96294 7.66295 1.83843C7.78249 1.71391 7.94461 1.64396 8.11366 1.64396C8.28271 1.64396 8.44483 1.71391 8.56437 1.83843C8.68391 1.96294 8.75106 2.13182 8.75106 2.30791ZM5.16463 3.53668C4.6958 3.53668 4.24618 3.73068 3.91466 4.076C3.58315 4.42133 3.39691 4.88969 3.39691 5.37805C3.39691 5.86642 3.58315 6.33478 3.91466 6.6801C4.24618 7.02542 4.6958 7.21943 5.16463 7.21943C5.63346 7.21943 6.08308 7.02542 6.4146 6.6801C6.74611 6.33478 6.93235 5.86642 6.93235 5.37805C6.93235 4.88969 6.74611 4.42133 6.4146 4.076C6.08308 3.73068 5.63346 3.53668 5.16463 3.53668ZM2.5462 5.37805C2.5462 4.6549 2.82198 3.96137 3.31287 3.45002C3.80376 2.93867 4.46955 2.6514 5.16378 2.6514C5.85801 2.6514 6.5238 2.93867 7.01469 3.45002C7.50558 3.96137 7.78136 4.6549 7.78136 5.37805C7.78136 6.1012 7.50558 6.79474 7.01469 7.30609C6.5238 7.81743 5.85801 8.1047 5.16378 8.1047C4.46955 8.1047 3.80376 7.81743 3.31287 7.30609C2.82198 6.79474 2.5462 6.1012 2.5462 5.37805Z" fill="#F8F8F8"/>
</svg>
