<?xml version="1.0" encoding="UTF-8"?>
<svg id="Capa_2" data-name="Capa 2" xmlns="http://www.w3.org/2000/svg" viewBox="0 0 304.77 70.96">
  <defs>
    <style>
      .cls-1 {
        fill: #c11819;
      }

      .cls-2 {
        fill: #262726;
      }
    </style>
  </defs>
  <g id="Capa_1-2" data-name="Capa 1">
    <path class="cls-2" d="M29.85,70.68v-20.79l-6.61,14.62h-5.78l-6.61-14.62v20.79H0V31.21H11.84l8.5,18.57,8.56-18.57h11.78v39.47h-10.84Z"/>
    <path class="cls-2" d="M75.6,61.23v9.45h-28.13V31.21h27.63v9.45h-16.79v5.56h14.34v8.78h-14.34v6.23h17.29Z"/>
    <path class="cls-2" d="M80.65,70.68V31.21h10.84v39.47h-10.84Z"/>
    <path class="cls-2" d="M106,31.21l7.17,12.45,7.17-12.45h11.67l-13.17,20.01,12.73,19.46h-11.67l-6.73-11.9-6.73,11.9h-11.73l12.73-19.46-13.17-20.01h11.73Z"/>
    <path class="cls-2" d="M205.82,61.23v9.45h-28.13V31.21h27.63v9.45h-16.79v5.56h14.34v8.78h-14.34v6.23h17.29Z"/>
    <path class="cls-2" d="M210.88,70.68V31.21h10.84v39.47h-10.84Z"/>
    <path class="cls-2" d="M228.5,70.68V31.21h18.12c1.93,0,3.71,.4,5.34,1.19,1.63,.8,3.03,1.83,4.2,3.11s2.08,2.74,2.75,4.39c.67,1.65,1,3.31,1,4.97,0,2.3-.5,4.44-1.5,6.42-1,1.98-2.39,3.6-4.17,4.86l8.34,14.51h-12.23l-6.95-12.12h-4.06v12.12h-10.84Zm10.84-21.57h6.84c.67,0,1.29-.37,1.86-1.11,.57-.74,.86-1.78,.86-3.11s-.33-2.42-1-3.14-1.33-1.08-2-1.08h-6.56v8.45Z"/>
    <g>
      <path class="cls-2" d="M25.2,27.47V5.07L15.25,22.4h-1.58L3.72,5.07V27.47H1.03V.19H3.8L14.44,18.86,25.16,.19h2.73V27.47h-2.69Z"/>
      <path class="cls-2" d="M42.41,27.47V.19h2.69V27.47h-2.69Z"/>
      <path class="cls-2" d="M79.33,23.47c-2.54,2.79-5.46,4.19-8.76,4.19-1.84,0-3.54-.4-5.09-1.19s-2.89-1.84-4.03-3.15c-1.14-1.31-2.03-2.78-2.67-4.44-.64-1.65-.96-3.35-.96-5.09s.31-3.56,.94-5.22c.63-1.66,1.5-3.13,2.63-4.4,1.13-1.27,2.46-2.28,4-3.04,1.54-.76,3.21-1.13,5.03-1.13,1.33,0,2.55,.15,3.65,.44,1.1,.29,2.08,.71,2.94,1.23,.86,.53,1.6,1.15,2.23,1.88,.63,.73,1.16,1.53,1.59,2.4l-2.07,1.38c-.9-1.69-2.06-2.93-3.5-3.73-1.43-.79-3.06-1.19-4.88-1.19-1.51,0-2.88,.32-4.09,.96s-2.25,1.49-3.11,2.55c-.86,1.06-1.52,2.28-1.98,3.65-.46,1.37-.69,2.79-.69,4.25,0,1.54,.26,3,.79,4.38,.52,1.38,1.25,2.59,2.17,3.63,.92,1.04,2,1.86,3.25,2.48,1.24,.61,2.59,.92,4.05,.92,1.56,0,3.05-.37,4.48-1.1,1.42-.73,2.79-1.89,4.09-3.48v-4.53h-6.07v-2.07h8.34v13.41h-2.27v-4Z"/>
      <path class="cls-2" d="M105.87,25.24c1.72,0,3.14-.33,4.28-.98,1.14-.65,2.05-1.51,2.73-2.57,.68-1.06,1.15-2.27,1.42-3.63s.4-2.73,.4-4.11V.19h2.69V13.94c0,1.84-.21,3.59-.61,5.24s-1.07,3.11-1.98,4.36c-.91,1.25-2.09,2.25-3.55,3-1.46,.74-3.24,1.11-5.34,1.11s-3.96-.39-5.44-1.17c-1.47-.78-2.66-1.81-3.55-3.09-.9-1.28-1.54-2.74-1.92-4.38-.38-1.64-.58-3.33-.58-5.07V.19h2.65V13.94c0,1.43,.14,2.83,.42,4.19,.28,1.36,.76,2.56,1.44,3.61s1.58,1.9,2.71,2.54c1.13,.64,2.54,.96,4.23,.96Z"/>
      <path class="cls-2" d="M149.82,25.09v2.38h-18.32V.19h17.98V2.57h-15.29V12.41h13.33v2.27h-13.33v10.41h15.64Z"/>
      <path class="cls-2" d="M162.57,27.47V.19h2.69V25.09h15.75v2.38h-18.44Z"/>
    </g>
    <g>
      <path class="cls-1" d="M266.59,40.88c-.85,1.7-1.48,3.55-1.82,5.52-.86,4.89,.11,9.67,2.43,13.64l14.12-16.57-14.72-2.6Z"/>
      <path class="cls-1" d="M283.56,29.78c-6.93,.36-13.18,4.29-16.53,10.27l21.55,3.8-5.03-14.07Z"/>
      <path class="cls-1" d="M302.63,58.94c.85-1.7,1.48-3.55,1.82-5.52,.86-4.88-.11-9.66-2.43-13.64l-14.12,16.56,14.72,2.6Z"/>
      <path class="cls-1" d="M301.54,38.98c-2.94-4.54-7.68-7.9-13.42-8.91-1.21-.21-2.42-.31-3.61-.31l7.35,20.58,9.69-11.36Z"/>
      <path class="cls-1" d="M267.69,60.86c2.94,4.54,7.68,7.89,13.42,8.9,1.29,.23,2.58,.33,3.85,.31l-7.58-20.58-9.69,11.37Z"/>
      <path class="cls-1" d="M285.9,70.03c6.84-.43,12.98-4.35,16.3-10.26l-21.47-3.79,5.17,14.04Z"/>
    </g>
    <path class="cls-2" d="M153.53,70.96c-3,0-5.73-.57-8.17-1.72-2.45-1.15-4.54-2.66-6.28-4.53-1.74-1.87-3.09-4.01-4.06-6.42-.96-2.41-1.45-4.89-1.45-7.45s.5-5.09,1.5-7.5c1-2.41,2.4-4.53,4.2-6.36,1.8-1.83,3.93-3.3,6.39-4.39,2.46-1.09,5.16-1.64,8.09-1.64s5.73,.58,8.17,1.72c2.45,1.15,4.54,2.67,6.28,4.56,1.74,1.89,3.08,4.04,4.03,6.45,.94,2.41,1.42,4.87,1.42,7.39s-.5,5.09-1.5,7.48c-1,2.39-2.39,4.5-4.17,6.34-1.78,1.83-3.9,3.31-6.36,4.42-2.46,1.11-5.16,1.67-8.09,1.67Zm-8.95-20.01c0,1.33,.19,2.62,.56,3.86,.37,1.24,.93,2.34,1.67,3.31,.74,.96,1.68,1.74,2.81,2.33,1.13,.59,2.47,.89,4.03,.89s2.91-.31,4.06-.92c1.15-.61,2.08-1.41,2.81-2.39s1.26-2.1,1.61-3.36c.35-1.26,.53-2.54,.53-3.84s-.19-2.62-.56-3.86c-.37-1.24-.94-2.33-1.7-3.28-.76-.95-1.71-1.7-2.83-2.28-1.13-.57-2.46-.86-3.97-.86s-2.9,.3-4.03,.89c-1.13,.59-2.07,1.38-2.81,2.36-.74,.98-1.29,2.09-1.64,3.33-.35,1.24-.53,2.51-.53,3.81Z"/>
  </g>
</svg>