<svg width="11" height="12" viewBox="0 0 11 12" fill="none" xmlns="http://www.w3.org/2000/svg">
<path d="M1.55497 0.777481C0.697306 0.777481 0 1.47479 0 2.33245V10.1073C0 10.965 0.697306 11.6623 1.55497 11.6623H9.32981C10.1875 11.6623 10.8848 10.965 10.8848 10.1073V2.33245C10.8848 1.47479 10.1875 0.777481 9.32981 0.777481H1.55497ZM8.77342 2.81838L6.25146 5.69993L9.21804 9.62136H6.89531L5.07794 7.24275L2.99574 9.62136H1.84167L4.53856 6.53815L1.69346 2.81838H4.0745L5.71937 4.9929L7.61934 2.81838H8.77342ZM7.85502 8.93134L3.72706 3.47195H3.03948L7.21359 8.93134H7.85259H7.85502Z" fill="#F8F8F8"/>
</svg>
